<svg width="376" height="376" viewBox="0 0 376 376" fill="none" xmlns="http://www.w3.org/2000/svg">
<g opacity="0.02" clip-path="url(#clip0_15896_3448)">
<path d="M15.4619 0.00614834C394.889 0.0463431 774.336 -0.0541659 1153.74 0.046321C1153.74 10.6175 1153.82 21.1888 1153.78 31.76C784.853 31.7198 415.902 31.6796 46.9721 31.7801C47.0323 79.7727 46.952 127.765 47.0323 175.758C56.6861 183.133 63.2892 192.519 62.4663 205.241C61.9043 222.323 46.4703 236.07 29.4709 234.744C12.2506 234.221 -1.35696 218.244 0.108165 201.201C0.790552 190.449 6.75142 182.41 15.1809 176.2C15.6024 117.475 15.0204 58.7307 15.4619 0.00614834Z" fill="white"/>
<path d="M229.308 174.193C236.514 176.725 241.21 181.91 245.987 187.578C548.565 187.658 851.183 187.457 1153.76 187.678C1153.78 198.129 1153.76 208.579 1153.76 219.03C859.974 219.231 566.126 219.05 272.339 219.13C263.769 219.291 254.978 218.487 246.489 219.613C242.374 222.848 239.364 227.089 235.008 230.063C224.331 237.077 209.098 236.173 199.103 228.295C187.783 219.794 184.03 203.675 189.75 190.833C195.771 176.263 214.657 167.641 229.308 174.193Z" fill="white"/>
<path d="M31.495 312.75C43.4769 312.649 52.1874 319.1 59.0514 328.365C423.948 328.365 788.864 328.325 1153.76 328.385C1153.78 338.816 1153.76 349.246 1153.76 359.677C1143.6 360.079 1133.47 360.119 1123.31 360.059C781.458 360.059 439.582 360.059 97.7267 360.059C84.661 360.119 71.5752 359.898 58.5095 360.2C51.9064 369.263 43.0755 375.313 31.495 375.313C14.3952 375.534 -0.436649 361.164 0.0651062 343.88C-0.215877 326.858 14.5157 312.328 31.495 312.75Z" fill="white"/>
</g>
<defs>
<clipPath id="clip0_15896_3448">
<rect width="576" height="376" fill="white"/>
</clipPath>
</defs>
</svg>
