<svg width="24" height="24" viewBox="0 0 24 24" fill="none" xmlns="http://www.w3.org/2000/svg">
<path d="M22.1127 16.7472V19.7472C22.1139 20.0257 22.0568 20.3014 21.9452 20.5566C21.8337 20.8118 21.67 21.0408 21.4648 21.2291C21.2596 21.4174 21.0173 21.5607 20.7535 21.65C20.4897 21.7392 20.2101 21.7723 19.9327 21.7472C16.8556 21.4129 13.8997 20.3614 11.3027 18.6772C8.88655 17.1419 6.83806 15.0934 5.30273 12.6772C3.6127 10.0684 2.56097 7.09824 2.23273 4.00725C2.20774 3.73071 2.2406 3.45201 2.32923 3.18887C2.41785 2.92573 2.5603 2.68393 2.74749 2.47887C2.93469 2.2738 3.16253 2.10995 3.41652 1.99777C3.6705 1.88558 3.94507 1.82751 4.22273 1.82725H7.22273C7.70803 1.82247 8.17852 1.99432 8.54649 2.31078C8.91446 2.62723 9.1548 3.06669 9.22273 3.54725C9.34935 4.50731 9.58418 5.44997 9.92273 6.35725C10.0573 6.71517 10.0864 7.10416 10.0066 7.47813C9.92688 7.85209 9.74159 8.19536 9.47273 8.46725L8.20273 9.73725C9.62628 12.2408 11.6992 14.3137 14.2027 15.7372L15.4727 14.4672C15.7446 14.1984 16.0879 14.0131 16.4618 13.9333C16.8358 13.8536 17.2248 13.8827 17.5827 14.0172C18.49 14.3558 19.4327 14.5906 20.3927 14.7172C20.8785 14.7858 21.3221 15.0305 21.6393 15.4047C21.9564 15.779 22.1249 16.2568 22.1127 16.7472Z" stroke="#8C8C8C" stroke-width="1.5" stroke-linecap="round" stroke-linejoin="round"/>
</svg>
